<svg data-v-0dd9719b="" version="1.0" xmlns="http://www.w3.org/2000/svg" xmlns:xlink="http://www.w3.org/1999/xlink" width="100%" height="100%" viewBox="0 0 340.000000 250.000000" preserveAspectRatio="xMidYMid meet" color-interpolation-filters="sRGB" style="margin: auto;"> <rect data-v-0dd9719b="" x="0" y="0" width="100%" height="100%" fill="#ffffff" fill-opacity="1" class="background"></rect> <rect data-v-0dd9719b="" x="0" y="0" width="100%" height="100%" fill="url(#watermark)" fill-opacity="1" class="watermarklayer"></rect> <g data-v-0dd9719b="" fill="#f8b20a" class="icon-text-wrapper icon-svg-group iconsvg" transform="translate(49.400001525878906,98.91531181335449)"><g class="iconsvg-imagesvg" transform="translate(0,0)"><g><rect fill="#f8b20a" fill-opacity="0" stroke-width="2" x="0" y="0" width="60" height="52.16937657594992" class="image-rect"></rect> <svg filter="url(#colors7024695276)" x="0" y="0" width="60" height="52.16937657594992" filtersec="colorsf9629468108" class="image-svg-svg primary" style="overflow: visible;"><svg xmlns="http://www.w3.org/2000/svg" viewBox="6.200000762939453 38.79999923706055 499.60235595703125 434.3978271484375"><path d="M287.5 152.494a10.001 10.001 0 0 0-7.071-9.556l-70.025-21.446-21.544-70.224a10 10 0 0 0-19.12 0l-21.543 70.225-70.025 21.446a10 10 0 0 0-.012 19.12l70.034 21.542 21.545 70.232a10 10 0 0 0 19.12 0l21.546-70.232 70.035-21.542a10 10 0 0 0 7.06-9.565zm-88.04 13.548a10.001 10.001 0 0 0-6.62 6.625l-13.54 44.136-13.54-44.136a9.999 9.999 0 0 0-6.62-6.625l-43.958-13.521 43.947-13.459a10 10 0 0 0 6.632-6.629l13.54-44.136 13.54 44.136a10 10 0 0 0 6.632 6.629l43.947 13.459-43.96 13.521zM442.94 343.242l-70.036-21.543-21.545-70.136a10 10 0 0 0-19.12 0l-21.544 70.136-70.036 21.543a10 10 0 0 0 0 19.116l70.036 21.544 21.544 70.135a10 10 0 0 0 19.12 0l21.545-70.135 70.036-21.544a10 10 0 0 0 0-19.116zm-80.98 23.101a10 10 0 0 0-6.619 6.621L341.8 417.045l-13.54-44.081a10.002 10.002 0 0 0-6.619-6.621L277.614 352.8l44.025-13.542a10.001 10.001 0 0 0 6.62-6.621l13.54-44.081 13.541 44.081a10 10 0 0 0 6.62 6.621l44.025 13.542-44.025 13.543zM189.542 386.942L143.603 372.8l-14.145-46.037a10 10 0 0 0-19.118 0L96.195 372.8l-45.938 14.142a10.001 10.001 0 0 0 0 19.116L96.2 420.2l14.143 45.942a10.001 10.001 0 0 0 19.115 0l14.144-45.942 45.942-14.143a10.001 10.001 0 0 0-.002-19.115zm-56.884 15.701a10.002 10.002 0 0 0-6.615 6.615l-6.143 19.954-6.142-19.954a10 10 0 0 0-6.615-6.615L87.188 396.5l19.954-6.143a10.001 10.001 0 0 0 6.617-6.621l6.141-19.987 6.141 19.987a10.001 10.001 0 0 0 6.617 6.621l19.954 6.143-19.954 6.143zM498.754 126.046l-46.04-14.236-14.052-45.936a10 10 0 0 0-9.554-7.075h-.009a10.002 10.002 0 0 0-9.558 7.058l-14.146 45.953-45.955 14.237a10 10 0 0 0 .017 19.11L405.4 159.3l14.142 45.941a10 10 0 0 0 9.558 7.058h.009a10 10 0 0 0 9.554-7.075L452.71 159.3l46.026-14.141a9.999 9.999 0 0 0 .018-19.113zm-56.99 15.695a10 10 0 0 0-6.626 6.634l-6.068 19.837-6.111-19.854a10.001 10.001 0 0 0-6.615-6.616l-20.053-6.173 20.069-6.217a10.004 10.004 0 0 0 6.599-6.61l6.111-19.854 6.068 19.837a9.998 9.998 0 0 0 6.608 6.628l20.104 6.216-20.086 6.172zM57.1 284.8v-20.9h21c5.523 0 10-4.478 10-10s-4.477-10-10-10h-21v-21c0-5.523-4.477-10-10-10s-10 4.477-10 10v21H16.2c-5.523 0-10 4.477-10 10s4.477 10 10 10h20.9v20.9c0 5.522 4.477 10 10 10s10-4.478 10-10zM276.3 293c5.522 0 10-4.478 10-10v-20.9h20.9c5.522 0 10-4.477 10-10s-4.478-10-10-10h-20.9v-21c0-5.523-4.478-10-10-10s-10 4.477-10 10v21h-20.9c-5.523 0-10 4.477-10 10s4.477 10 10 10h20.9V283c0 5.522 4.477 10 10 10zM278.1 89.7H299v21c0 5.523 4.478 10 10 10s10-4.477 10-10v-21h21c5.522 0 10-4.477 10-10s-4.478-10-10-10h-21V48.8c0-5.523-4.478-10-10-10s-10 4.477-10 10v20.9h-20.9c-5.522 0-10 4.477-10 10s4.477 10 10 10zM466.1 273.6h-21v-20.9c0-5.523-4.478-10-10-10s-10 4.477-10 10v20.9h-20.9c-5.522 0-10 4.478-10 10s4.478 10 10 10h20.9v21c0 5.522 4.478 10 10 10s10-4.478 10-10v-21h21c5.522 0 10-4.478 10-10s-4.478-10-10-10z" fill="#000000"></path></svg></svg> <defs><filter id="colors7024695276"><feColorMatrix type="matrix" values="0 0 0 0 0.984375  0 0 0 0 0.33203125  0 0 0 0 0.02734375  0 0 0 1 0" class="icon-fecolormatrix"></feColorMatrix></filter> <filter id="colorsf9629468108"><feColorMatrix type="matrix" values="0 0 0 0 0.99609375  0 0 0 0 0.99609375  0 0 0 0 0.99609375  0 0 0 1 0" class="icon-fecolormatrix"></feColorMatrix></filter> <filter id="colorsb7232819779"><feColorMatrix type="matrix" values="0 0 0 0 0  0 0 0 0 0  0 0 0 0 0  0 0 0 1 0" class="icon-fecolormatrix"></feColorMatrix></filter></defs></g></g> <g transform="translate(67,1.5234394073486328)"><g data-gra="path-name" fill-rule="" class="tp-name iconsvg-namesvg" transform="translate(0,0)"><g transform="scale(1)"><g><path d="M19.4-9.65L19.4-0.58 27-0.58 27-9.65 19.4-9.65ZM19.58-10.66L30.96-10.66 30.96 1.69Q30.89 1.91 29.7 2.27L29.7 2.27Q28.55 2.66 27.68 2.66L27.68 2.66 27 2.66 27 0.43 19.4 0.43 19.4 1.87Q19.4 2.2 18.25 2.66L18.25 2.66Q17.14 3.13 15.98 3.13L15.98 3.13 15.37 3.13 15.37-12.38 19.58-10.66ZM17.03-16.56L30.06-16.56 30.06-15.52Q30.06-15.52 17.32-15.52L17.32-15.52 17.03-16.56ZM6.01-25.49L6.01-8.42 9.22-8.42 9.22-25.49 6.01-25.49ZM20.7-30.82L20.7-30.82 26.21-29.05Q25.92-28.3 24.8-28.33L24.8-28.33Q26.28-25.27 29.2-22.64L29.2-22.64Q32.15-20.02 35.39-18.43L35.39-18.43 35.32-17.96Q33.08-16.63 32.72-14.33L32.72-14.33Q30.06-16.52 27.86-19.98L27.86-19.98Q25.67-23.47 24.34-27.36L24.34-27.36Q20.45-18.4 13-13.75L13-13.75 12.96-5.76Q12.92-5.47 11.84-4.97L11.84-4.97Q10.76-4.5 9.83-4.5L9.83-4.5 9.22-4.5 9.22-7.38 6.01-7.38 6.01-3.82Q6.01-3.46 5.04-2.95L5.04-2.95Q4.07-2.48 2.95-2.48L2.95-2.48 2.34-2.48 2.34-28.15 6.19-26.5 12.96-26.5 12.96-14.51Q15.44-17.6 17.53-21.89L17.53-21.89Q19.62-26.21 20.7-30.82ZM64.55-22.43L64.55-22.43 46.73-22.43Q42.7-17.14 37.22-13.79L37.22-13.79 36.9-14.11Q39.42-17.17 41.83-21.64L41.83-21.64Q44.28-26.14 45.76-30.78L45.76-30.78 50.15-28.33Q48.92-25.49 47.48-23.44L47.48-23.44 69.26-23.44 69.26-21.49Q68.08-20.12 66.24-18.47L66.24-18.47Q64.4-16.85 62.82-15.77L62.82-15.77 62.5-15.98Q63.58-18.65 64.55-22.43ZM45.29-16.38L45.29-16.38 49.46-13.97Q44.78-4.9 37.55-0.72L37.55-0.72 37.22-1.08Q39.96-4 42.12-8.28 44.28-12.56 45.29-16.38ZM52.52-2.27L52.52-2.27 52.52-20.48 56.84-19.98 56.84-1.98Q56.84 0.54 55.73 1.69 54.61 2.84 51.01 3.2L51.01 3.2Q50.76 0.9 49.97 0.11L49.97 0.11Q49.03-0.94 46.37-1.4L46.37-1.4 46.37-1.87Q50.83-1.62 51.7-1.62L51.7-1.62Q52.52-1.62 52.52-2.27ZM59.33-15.55L59.33-15.55 59.72-15.77Q66.64-12.49 68.9-7.85L68.9-7.85Q70.34-4.97 69.41-3.06L69.41-3.06Q68.69-1.58 67.14-2.02L67.14-2.02Q66.53-2.2 65.92-2.7L65.92-2.7Q65.34-5.69 63.47-9.14L63.47-9.14Q61.6-12.64 59.33-15.55ZM74.63-29.92L74.63-29.92 74.92-30.13Q79.99-29.66 81.29-27.22L81.29-27.22Q82.08-25.74 81.14-24.62L81.14-24.62Q80.17-23.47 78.59-24.05L78.59-24.05Q78.26-24.19 77.9-24.41L77.9-24.41Q77.18-27.22 74.63-29.92ZM72.65-21.67L72.65-21.67 72.97-21.89Q77.72-21.46 78.91-19.19L78.91-19.19Q79.6-17.86 78.66-16.78L78.66-16.78Q77.65-15.66 76.14-16.31L76.14-16.31Q75.85-16.45 75.56-16.63L75.56-16.63Q74.99-19.33 72.65-21.67ZM82.66-25.13L82.66-25.13 83.23-24.98Q80.03-12.13 79.56-9.79L79.56-9.79Q79.09-7.42 79.13-6.3L79.13-6.3Q79.16-5.54 79.88-3.56L79.88-3.56Q80.64-1.62 80.57 0.22L80.57 0.22Q80.5 1.58 79.7 2.41 78.91 3.24 77.62 3.24L77.62 3.24Q76.03 3.24 75.64 1.37L75.64 1.37Q76.14-1.44 76.03-3.67L76.03-3.67Q75.92-5.94 75.31-6.37L75.31-6.37Q74.66-6.84 73.48-6.95L73.48-6.95 73.48-7.63 75.06-7.63Q75.49-7.63 75.67-7.74L75.67-7.74Q75.85-7.88 76.07-8.42L76.07-8.42Q76.61-9.43 77.44-11.52 78.26-13.61 82.66-25.13ZM81.54 3.13L81.54 3.13 81.25 2.7Q83.63 1.15 85.82-1.15L85.82-1.15Q88.02-3.49 89.17-5.58L89.17-5.58 92.56-2.81Q90.58-0.68 87.62 0.79L87.62 0.79Q84.71 2.3 81.54 3.13ZM95.94-4.72L95.94-4.72 96.23-5Q102.71-4.25 104.94-1.22L104.94-1.22Q106.24 0.5 105.48 1.94L105.48 1.94Q104.83 3.2 103.25 2.88L103.25 2.88Q102.89 2.81 102.49 2.63L102.49 2.63Q101.56 0.86 99.68-1.15L99.68-1.15Q97.85-3.17 95.94-4.72ZM95.51-13.68L90.11-13.68 90.11-7.2 95.51-7.2 95.51-13.68ZM99.47-7.2L106.67-7.2 106.67-6.19 81.72-6.19 81.47-7.2 86.04-7.2 86.04-19.84Q85.14-19.22 84.1-19.55L84.1-19.55Q83.09-19.87 82.84-20.81L82.84-20.81Q82.62-21.78 83.59-23.18L83.59-23.18Q85.57-24.12 85.82-27.11L85.82-27.11 86.29-27.11Q86.72-25.88 86.9-25.24L86.9-25.24 94-25.24Q93.53-25.45 93.17-25.7L93.17-25.7Q92.92-28.3 91.04-30.67L91.04-30.67 91.33-30.89Q96.01-30.42 96.98-28.15L96.98-28.15Q97.63-26.75 96.55-25.7L96.55-25.7Q96.23-25.42 95.83-25.24L95.83-25.24 105.91-25.24 105.91-23.4Q103.43-21.2 102.17-20.34L102.17-20.34 101.81-20.56Q101.84-20.99 101.84-21.6L101.84-21.6Q101.88-22.21 101.88-23L101.88-23Q101.92-23.8 101.92-24.19L101.92-24.19 87.12-24.19Q87.48-22.18 86.94-20.92L86.94-20.92 90.18-19.44Q95.65-21.2 99-23.15L99-23.15 100.62-19.26Q95.51-18.5 90.11-18.36L90.11-18.36 90.11-14.69 105.19-14.69 105.19-13.68Q105.19-13.68 99.47-13.68L99.47-13.68 99.47-7.2ZM133.27-23.11L133.27-27.11 119.34-27.11 119.34-23.11 133.27-23.11ZM119.34-22.1L119.34-17.96 133.27-17.96 133.27-22.1 119.34-22.1ZM128.81 0.9L142.81 0.9 142.81 1.91Q142.81 1.91 109.66 1.91L109.66 1.91 109.37 0.9 124.31 0.9 124.31-4.43 114.84-4.43 114.55-5.4 124.31-5.4 124.31-9.94 118.3-9.94Q115.09-6.12 110.81-4.14L110.81-4.14 110.41-4.46Q114.37-8.6 116.53-15.01L116.53-15.01Q115.88-14.94 115.52-14.94L115.52-14.94 114.88-14.94 114.88-29.99 119.59-28.15 137.77-28.15 137.77-16.45Q137.74-16.2 136.4-15.8 135.07-15.41 134.06-15.41L134.06-15.41 133.27-15.41 133.27-16.92 119.34-16.92 119.34-16.31Q119.34-16.06 118.44-15.62L118.44-15.62 122.15-14.11Q121.86-13.39 120.74-13.54L120.74-13.54Q120.06-12.31 119.09-10.98L119.09-10.98 124.31-10.98 124.31-16.06 128.81-15.55 128.81-10.98 140.44-10.98 140.44-9.94 128.81-9.94 128.81-5.4 140.15-5.4 140.15-4.43 128.81-4.43 128.81 0.9ZM169.74-29.81L169.74-29.81 173.77-27.32Q170.32-23.29 166.54-21.06L166.54-21.06 166.14-21.38Q167.9-24.62 169.74-29.81ZM149.15-29.27L149.15-29.27 149.51-29.48Q155.02-28.37 156.56-25.38L156.56-25.38Q157.57-23.54 156.56-22.14L156.56-22.14Q155.66-20.84 154.08-21.35L154.08-21.35Q153.58-21.53 153.11-21.85L153.11-21.85Q152.78-23.69 151.67-25.7 150.55-27.72 149.15-29.27ZM158.9-13.75L158.9-7.2 164.81-7.2 164.81-13.75 158.9-13.75ZM168.62-14.76L168.62-4.64Q168.59-4.43 167.44-4L167.44-4Q166.32-3.56 165.42-3.56L165.42-3.56 164.81-3.56 164.81-6.16 158.9-6.16 158.9-3.89Q158.9-3.71 158.44-3.42L158.44-3.42Q158-3.17 157.21-2.92L157.21-2.92Q156.46-2.7 155.7-2.7L155.7-2.7 155.16-2.7 155.16-16.34 159.08-14.76 168.62-14.76ZM163.94-20.34L176.54-20.34 176.54-1.62Q176.54 0.72 175.46 1.84L175.46 1.84Q174.42 2.95 171.04 3.24L171.04 3.24Q170.78 1.08 170.14 0.32L170.14 0.32Q169.16-0.68 166.86-1.04L166.86-1.04 166.86-1.55Q170.6-1.3 171.58-1.3L171.58-1.3Q172.33-1.3 172.33-2.02L172.33-2.02 172.33-19.3 151.49-19.3 151.49 1.84Q151.49 2.23 150.34 2.74L150.34 2.74Q149.22 3.28 148.03 3.28L148.03 3.28 147.38 3.28 147.38-22.18 151.85-20.34 159.7-20.34 159.7-30.67 163.94-30.24 163.94-20.34Z" transform="translate(-2.3399999141693115, 30.889999389648438)"></path></g> <!----> <!----> <!----> <!----> <!----> <!----> <!----></g></g> <g data-gra="path-slogan" fill-rule="" class="tp-slogan iconsvg-slogansvg" fill="#f8b20a" transform="translate(5,40.16999816894531)"><rect x="0" height="1" y="3.9750003814697266" width="19.875"></rect> <rect height="1" y="3.9750003814697266" width="19.875" x="144.3249969482422"></rect> <g transform="translate(22.875,0)"><g transform="scale(1)"><path d="M2.06-5.06L6.56-5.06L6.56-8.58L7.73-8.58L7.73 0L6.56 0L6.56-3.98L2.06-3.98L2.06 0L0.89 0L0.89-8.58L2.06-8.58L2.06-5.06ZM15.19 0L14.34-2.48L10.88-2.48L9.98 0L8.81 0L12.05-8.58L13.36-8.58L16.45 0L15.19 0ZM12.61-7.31L11.25-3.52L13.92-3.52L12.66-7.31L12.61-7.31ZM21.61-3.70L18.80-3.70L18.80 0L17.63 0L17.63-8.58L21.61-8.58Q24.47-8.58 24.47-6.28L24.47-6.28Q24.47-4.88 23.25-4.22L23.25-4.22Q24.28-3.94 24.28-2.58L24.28-2.58L24.38-1.03Q24.33-0.38 24.80-0.19L24.80-0.19L24.80 0L23.34 0Q23.20-0.61 23.16-2.16L23.16-2.16Q23.20-3.70 21.61-3.70L21.61-3.70ZM21.70-7.64L18.80-7.64L18.80-4.69L21.52-4.69Q23.25-4.69 23.25-6.19L23.25-6.19Q23.25-7.64 21.70-7.64L21.70-7.64ZM29.34-7.64L27.28-7.64L27.28-4.97L29.34-4.97Q31.17-4.92 31.13-6.38L31.13-6.38Q31.13-7.64 29.34-7.64L29.34-7.64ZM29.81 0L26.11 0L26.11-8.58L29.91-8.58Q32.20-8.48 32.30-6.42L32.30-6.42Q32.30-5.16 31.17-4.64L31.17-4.64Q32.77-4.08 32.77-2.53L32.77-2.53Q32.63-0.09 29.81 0L29.81 0ZM29.53-3.98L27.28-3.98L27.28-0.98L29.77-0.98Q31.55-1.03 31.59-2.53L31.59-2.53Q31.59-3.98 29.53-3.98L29.53-3.98ZM34.27-8.58L35.44-8.58L35.44 0L34.27 0L34.27-8.58ZM38.81-8.58L43.13-1.64L43.13-8.58L44.25-8.58L44.25 0L42.94 0L38.58-6.94L38.53-6.94L38.53 0L37.41 0L37.41-8.58L38.81-8.58ZM56.11-8.58L53.20-4.41L56.25 0L54.80 0L52.45-3.52L50.11 0L48.70 0L51.80-4.41L48.89-8.58L50.34-8.58L52.50-5.30L54.70-8.58L56.11-8.58ZM57.52-8.58L58.69-8.58L58.69 0L57.52 0L57.52-8.58ZM62.06-8.58L66.38-1.64L66.38-8.58L67.50-8.58L67.50 0L66.19 0L61.83-6.94L61.78-6.94L61.78 0L60.66 0L60.66-8.58L62.06-8.58ZM75.70-3.61L73.08-3.61L73.08-4.59L76.83-4.59L76.83 0L76.08 0L75.80-1.08Q74.81 0.09 72.98 0.14L72.98 0.14Q71.25 0.14 70.31-0.75L70.31-0.75Q68.91-2.06 68.95-4.36L68.95-4.36Q69.28-8.63 73.03-8.81L73.03-8.81Q76.22-8.63 76.69-6L76.69-6L75.56-6Q75.09-7.78 72.98-7.83L72.98-7.83Q70.31-7.64 70.17-4.31L70.17-4.31Q70.17-0.75 73.03-0.75L73.03-0.75Q74.06-0.75 74.81-1.31L74.81-1.31Q75.75-2.06 75.70-3.61L75.70-3.61ZM84.89-6.09L84.89-6.09L83.81-6.09Q83.72-7.73 81.66-7.83L81.66-7.83Q79.73-7.78 79.73-6.33L79.73-6.33Q79.73-5.39 80.77-5.25L80.77-5.25L83.20-4.69Q85.13-4.22 85.13-2.34L85.13-2.34Q85.08 0.05 81.75 0.14L81.75 0.14Q79.92 0.14 79.17-0.61L79.17-0.61Q78.23-1.31 78.28-2.77L78.28-2.77L79.41-2.77Q79.45-0.80 81.75-0.75L81.75-0.75Q84-0.80 84.05-2.20L84.05-2.20Q84.23-3.38 82.17-3.75L82.17-3.75L80.39-4.13Q78.56-4.64 78.56-6.19L78.56-6.19Q78.70-8.72 81.56-8.81L81.56-8.81Q84.80-8.81 84.89-6.09ZM87.75-5.06L92.25-5.06L92.25-8.58L93.42-8.58L93.42 0L92.25 0L92.25-3.98L87.75-3.98L87.75 0L86.58 0L86.58-8.58L87.75-8.58L87.75-5.06ZM100.88 0L100.03-2.48L96.56-2.48L95.67 0L94.50 0L97.73-8.58L99.05-8.58L102.14 0L100.88 0ZM98.30-7.31L96.94-3.52L99.61-3.52L98.34-7.31L98.30-7.31ZM104.58-8.58L108.89-1.64L108.89-8.58L110.02-8.58L110.02 0L108.70 0L104.34-6.94L104.30-6.94L104.30 0L103.17 0L103.17-8.58L104.58-8.58ZM118.22-3.61L115.59-3.61L115.59-4.59L119.34-4.59L119.34 0L118.59 0L118.31-1.08Q117.33 0.09 115.50 0.14L115.50 0.14Q113.77 0.14 112.83-0.75L112.83-0.75Q111.42-2.06 111.47-4.36L111.47-4.36Q111.80-8.63 115.55-8.81L115.55-8.81Q118.73-8.63 119.20-6L119.20-6L118.08-6Q117.61-7.78 115.50-7.83L115.50-7.83Q112.83-7.64 112.69-4.31L112.69-4.31Q112.69-0.75 115.55-0.75L115.55-0.75Q116.58-0.75 117.33-1.31L117.33-1.31Q118.27-2.06 118.22-3.61L118.22-3.61Z" transform="translate(-0.890625, 8.8125)"></path></g></g></g></g></g><defs v-gra="od"></defs></svg>